<?xml version="1.0" encoding="UTF-8" standalone="no"?>
<svg
   xmlns:dc="http://purl.org/dc/elements/1.1/"
   xmlns:cc="http://creativecommons.org/ns#"
   xmlns:rdf="http://www.w3.org/1999/02/22-rdf-syntax-ns#"
   xmlns:svg="http://www.w3.org/2000/svg"
   xmlns="http://www.w3.org/2000/svg"
   xmlns:sodipodi="http://sodipodi.sourceforge.net/DTD/sodipodi-0.dtd"
   xmlns:inkscape="http://www.inkscape.org/namespaces/inkscape"
   sodipodi:docname="drawing.svg"
   inkscape:version="1.0beta1 (32d4812, 2019-09-19)"
   id="svg8"
   version="1.1"
   viewBox="0 0 210 297"
   height="1122.5197"
   width="793.70081">
  <defs
     id="defs2">
    <rect
       id="rect869"
       height="21.960417"
       width="107.42083"
       y="137.05417"
       x="18.785417" />
    <rect
       id="rect863"
       height="26.458333"
       width="98.425"
       y="126.20625"
       x="17.4625" />
  </defs>
  <sodipodi:namedview
     inkscape:window-maximized="0"
     inkscape:window-y="23"
     inkscape:window-x="0"
     inkscape:window-height="694"
     inkscape:window-width="1280"
     units="px"
     showgrid="false"
     inkscape:document-rotation="0"
     inkscape:current-layer="g855"
     inkscape:document-units="mm"
     inkscape:cy="560"
     inkscape:cx="207.5"
     inkscape:zoom="1"
     inkscape:pageshadow="2"
     inkscape:pageopacity="0.0"
     borderopacity="1.0"
     bordercolor="#666666"
     pagecolor="#ffffff"
     id="base" />
  <metadata
     id="metadata5">
    <rdf:RDF>
      <cc:Work
         rdf:about="">
        <dc:format>image/svg+xml</dc:format>
        <dc:type
           rdf:resource="http://purl.org/dc/dcmitype/StillImage" />
        <dc:title></dc:title>
      </cc:Work>
    </rdf:RDF>
  </metadata>
  <g
     id="layer1"
     inkscape:groupmode="layer"
     inkscape:label="Layer 1">
    <g
       transform="translate(-7.14375,3.175)"
       style="opacity:0.82"
       id="g855">
      <path
         transform="matrix(0.26458333,0,0,0.26458333,7.14375,-3.175)"
         d="M 243.05078 480.10938 C 211.53604 480.28701 180.4702 487.38085 152.17188 500.86133 C 151.58445 507.06115 151.29086 513.28371 151.29102 519.50977 C 151.29102 521.00966 151.32544 522.50454 151.35938 524 L 336.85156 524 C 337.0979 519.98089 337.22849 515.94156 337.22852 511.88477 C 337.22848 508.30136 337.13057 504.71904 336.93555 501.14062 C 308.11585 487.30487 276.40426 480.10835 244.25977 480.10938 C 243.85694 480.10824 243.45361 480.10824 243.05078 480.10938 z M 165.85742 594 C 180.3936 629.86863 205.3099 661.49833 238.39453 684.61133 C 274.73581 662.67502 302.65245 630.86914 319.4043 594 L 165.85742 594 z "
         style="color:#000000;font-style:normal;font-variant:normal;font-weight:normal;font-stretch:normal;font-size:medium;line-height:normal;font-family:sans-serif;font-variant-ligatures:normal;font-variant-position:normal;font-variant-caps:normal;font-variant-numeric:normal;font-variant-alternates:normal;font-variant-east-asian:normal;font-feature-settings:normal;font-variation-settings:normal;text-indent:0;text-align:start;text-decoration:none;text-decoration-line:none;text-decoration-style:solid;text-decoration-color:#000000;letter-spacing:normal;word-spacing:normal;text-transform:none;writing-mode:lr-tb;direction:ltr;text-orientation:mixed;dominant-baseline:auto;baseline-shift:baseline;text-anchor:start;white-space:normal;shape-padding:0;shape-margin:0;inline-size:0;clip-rule:nonzero;display:inline;overflow:visible;visibility:visible;isolation:auto;mix-blend-mode:normal;color-interpolation:sRGB;color-interpolation-filters:linearRGB;solid-color:#000000;solid-opacity:1;vector-effect:none;fill:#000000;fill-opacity:1;fill-rule:nonzero;stroke:none;stroke-width:24.8037;stroke-linecap:butt;stroke-linejoin:miter;stroke-miterlimit:4;stroke-dasharray:none;stroke-dashoffset:0;stroke-opacity:1;color-rendering:auto;image-rendering:auto;shape-rendering:auto;text-rendering:auto;enable-background:accumulate;stop-color:#000000;stop-opacity:1"
         id="path857" />
      <path
         transform="matrix(0.26458333,0,0,0.26458333,7.14375,-3.175)"
         d="M 242.93945 455.29883 C 209.60966 455.48667 176.75364 462.99016 146.79883 477.25977 L 140.44922 480.28711 L 139.78516 487.28516 C 139.1609 493.87382 138.84749 500.48869 138.84766 507.10547 C 138.84768 512.77051 139.10098 518.40288 139.55273 524 L 164.43555 524 C 163.92028 518.411 163.65041 512.77608 163.65039 507.10547 C 163.6503 503.70488 163.9438 500.31289 164.13086 496.91797 C 188.97252 486.16733 215.78243 480.26709 243.05078 480.10938 L 243.08008 480.10938 C 243.44983 480.10839 243.81773 480.10832 244.1875 480.10938 L 244.20312 480.10938 L 244.22461 480.10938 C 272.04301 480.10851 299.41039 486.08755 324.72461 497.10938 C 324.73481 497.89967 324.79098 498.69006 324.79102 499.48047 C 324.79096 507.74644 324.22279 515.93061 323.13867 524 L 348.15625 524 C 349.10669 515.91366 349.59369 507.73039 349.59375 499.48047 C 349.59369 495.67214 349.49032 491.86351 349.2832 488.06055 L 348.88477 480.72852 L 342.26367 477.55469 C 311.76548 462.91314 278.23957 455.30219 244.25391 455.29883 C 243.82787 455.29766 243.40259 455.29766 242.97656 455.29883 L 242.96289 455.29883 L 242.93945 455.29883 z M 157.63672 594 C 173.41518 628.88645 198.61223 659.56952 231.25391 682.37305 L 237.86133 686.98633 L 244.76367 682.82422 C 280.82748 661.05542 309.11095 630.04099 327.16602 594 L 298.76172 594 C 284.1366 618.69175 263.79353 640.2541 238.84375 656.80273 C 216.32977 639.58712 198.22117 618.1018 185.41406 594 L 157.63672 594 z "
         style="color:#000000;font-style:normal;font-variant:normal;font-weight:normal;font-stretch:normal;font-size:medium;line-height:normal;font-family:sans-serif;font-variant-ligatures:normal;font-variant-position:normal;font-variant-caps:normal;font-variant-numeric:normal;font-variant-alternates:normal;font-variant-east-asian:normal;font-feature-settings:normal;font-variation-settings:normal;text-indent:0;text-align:start;text-decoration:none;text-decoration-line:none;text-decoration-style:solid;text-decoration-color:#000000;letter-spacing:normal;word-spacing:normal;text-transform:none;writing-mode:lr-tb;direction:ltr;text-orientation:mixed;dominant-baseline:auto;baseline-shift:baseline;text-anchor:start;white-space:normal;shape-padding:0;shape-margin:0;inline-size:0;clip-rule:nonzero;display:inline;overflow:visible;visibility:visible;isolation:auto;mix-blend-mode:normal;color-interpolation:sRGB;color-interpolation-filters:linearRGB;solid-color:#000000;solid-opacity:1;vector-effect:none;fill:#ececec;fill-opacity:1;fill-rule:nonzero;stroke:#000000;stroke-width:9.68693;stroke-linecap:butt;stroke-linejoin:miter;stroke-miterlimit:4;stroke-dasharray:none;stroke-dashoffset:0;stroke-opacity:1;color-rendering:auto;image-rendering:auto;shape-rendering:auto;text-rendering:auto;enable-background:accumulate;stop-color:#000000;stop-opacity:1"
         id="path859" />
      <text
         style="font-style:normal;font-weight:normal;font-size:10.5833px;line-height:1.25;font-family:sans-serif;shape-inside:url(#rect863);fill:#000000;fill-opacity:1;stroke:none"
         id="text861"
         xml:space="preserve" />
      <text
         transform="translate(36.247917,1.5875)"
         style="font-style:normal;font-weight:normal;font-size:10.5833px;line-height:1.25;font-family:sans-serif;shape-inside:url(#rect869);fill:#0000ff;fill-opacity:1;stroke:none"
         id="text867"
         xml:space="preserve"><tspan
           x="18.785156"
           y="146.71015"
           sodipodi:role="line"><tspan>LOGO</tspan></tspan></text>
    </g>
  </g>
</svg>
