<?xml version="1.0" encoding="UTF-8" standalone="no"?>
<svg
   xmlns:dc="http://purl.org/dc/elements/1.1/"
   xmlns:cc="http://creativecommons.org/ns#"
   xmlns:rdf="http://www.w3.org/1999/02/22-rdf-syntax-ns#"
   xmlns:svg="http://www.w3.org/2000/svg"
   xmlns="http://www.w3.org/2000/svg"
   xmlns:sodipodi="http://sodipodi.sourceforge.net/DTD/sodipodi-0.dtd"
   xmlns:inkscape="http://www.inkscape.org/namespaces/inkscape"
   sodipodi:docname="r.svg"
   inkscape:version="1.0beta1 (32d4812, 2019-09-19)"
   id="svg8"
   version="1.1"
   viewBox="0 0 58.322896 64.109618"
   height="242.30406"
   width="220.433">
  <defs
     id="defs2">
    <rect
       id="rect869"
       height="21.960417"
       width="107.42083"
       y="137.05417"
       x="18.785418" />
    <rect
       id="rect863"
       height="26.458332"
       width="98.425003"
       y="126.20625"
       x="17.4625" />
  </defs>
  <sodipodi:namedview
     fit-margin-bottom="0"
     fit-margin-right="0"
     fit-margin-left="0"
     fit-margin-top="0"
     inkscape:window-maximized="0"
     inkscape:window-y="23"
     inkscape:window-x="0"
     inkscape:window-height="694"
     inkscape:window-width="1280"
     units="px"
     showgrid="false"
     inkscape:document-rotation="0"
     inkscape:current-layer="g855"
     inkscape:document-units="mm"
     inkscape:cy="109.5454"
     inkscape:cx="73.495806"
     inkscape:zoom="1"
     inkscape:pageshadow="2"
     inkscape:pageopacity="0.0"
     borderopacity="1.0"
     bordercolor="#666666"
     pagecolor="#ffffff"
     id="base" />
  <metadata
     id="metadata5">
    <rdf:RDF>
      <cc:Work
         rdf:about="">
        <dc:format>image/svg+xml</dc:format>
        <dc:type
           rdf:resource="http://purl.org/dc/dcmitype/StillImage" />
        <dc:title></dc:title>
      </cc:Work>
    </rdf:RDF>
  </metadata>
  <g
     transform="translate(-35.455276,-119.18278)"
     id="layer1"
     inkscape:groupmode="layer"
     inkscape:label="Layer 1">
    <g
       transform="translate(-7.14375,3.175)"
       style="opacity:0.82"
       id="g855">
      <text
         style="font-style:normal;font-weight:normal;font-size:10.5833px;line-height:1.25;font-family:sans-serif;shape-inside:url(#rect863);fill:#000000;fill-opacity:1;stroke:none"
         id="text861"
         xml:space="preserve" />
      <g
         id="g971">
        <path
           inkscape:connector-curvature="0"
           id="path857"
           style="color:#000000;font-style:normal;font-variant:normal;font-weight:normal;font-stretch:normal;font-size:medium;line-height:normal;font-family:sans-serif;font-variant-ligatures:normal;font-variant-position:normal;font-variant-caps:normal;font-variant-numeric:normal;font-variant-alternates:normal;font-variant-east-asian:normal;font-feature-settings:normal;font-variation-settings:normal;text-indent:0;text-align:start;text-decoration:none;text-decoration-line:none;text-decoration-style:solid;text-decoration-color:#000000;letter-spacing:normal;word-spacing:normal;text-transform:none;writing-mode:lr-tb;direction:ltr;text-orientation:mixed;dominant-baseline:auto;baseline-shift:baseline;text-anchor:start;white-space:normal;shape-padding:0;shape-margin:0;inline-size:0;clip-rule:nonzero;display:inline;overflow:visible;visibility:visible;isolation:auto;mix-blend-mode:normal;color-interpolation:sRGB;color-interpolation-filters:linearRGB;solid-color:#000000;solid-opacity:1;vector-effect:none;fill:#000000;fill-opacity:1;fill-rule:nonzero;stroke:none;stroke-width:24.8037;stroke-linecap:butt;stroke-linejoin:miter;stroke-miterlimit:4;stroke-dasharray:none;stroke-dashoffset:0;stroke-opacity:1;color-rendering:auto;image-rendering:auto;shape-rendering:auto;text-rendering:auto;enable-background:accumulate;stop-color:#000000;stop-opacity:1"
           d="m 243.05078,480.10938 c -31.51474,0.17763 -62.58058,7.27147 -90.8789,20.75195 -0.58743,6.19982 -0.88102,12.42238 -0.88086,18.64844 0,1.49989 0.0344,2.99477 0.0684,4.49023 H 336.8516 c 0.24634,-4.01911 0.37693,-8.05844 0.37696,-12.11523 -4e-5,-3.58341 -0.098,-7.16573 -0.29297,-10.74415 -28.8197,-13.83575 -60.53129,-21.03227 -92.67578,-21.03124 -0.40283,-10e-4 -0.80616,-10e-4 -1.20899,0 z M 165.85742,594 c 14.53618,35.86863 39.45248,67.49833 72.53711,90.61133 C 274.73581,662.67502 302.65245,630.86914 319.4043,594 Z"
           transform="matrix(0.26458333,0,0,0.26458333,7.14375,-3.175)" />
        <path
           inkscape:connector-curvature="0"
           id="path859"
           style="color:#000000;font-style:normal;font-variant:normal;font-weight:normal;font-stretch:normal;font-size:medium;line-height:normal;font-family:sans-serif;font-variant-ligatures:normal;font-variant-position:normal;font-variant-caps:normal;font-variant-numeric:normal;font-variant-alternates:normal;font-variant-east-asian:normal;font-feature-settings:normal;font-variation-settings:normal;text-indent:0;text-align:start;text-decoration:none;text-decoration-line:none;text-decoration-style:solid;text-decoration-color:#000000;letter-spacing:normal;word-spacing:normal;text-transform:none;writing-mode:lr-tb;direction:ltr;text-orientation:mixed;dominant-baseline:auto;baseline-shift:baseline;text-anchor:start;white-space:normal;shape-padding:0;shape-margin:0;inline-size:0;clip-rule:nonzero;display:inline;overflow:visible;visibility:visible;isolation:auto;mix-blend-mode:normal;color-interpolation:sRGB;color-interpolation-filters:linearRGB;solid-color:#000000;solid-opacity:1;vector-effect:none;fill:#ececec;fill-opacity:1;fill-rule:nonzero;stroke:#000000;stroke-width:9.68693;stroke-linecap:butt;stroke-linejoin:miter;stroke-miterlimit:4;stroke-dasharray:none;stroke-dashoffset:0;stroke-opacity:1;color-rendering:auto;image-rendering:auto;shape-rendering:auto;text-rendering:auto;enable-background:accumulate;stop-color:#000000;stop-opacity:1"
           d="m 242.93945,455.29883 c -33.32979,0.18784 -66.18581,7.69133 -96.14062,21.96094 l -6.34961,3.02734 -0.66406,6.99805 c -0.62426,6.58866 -0.93767,13.20353 -0.9375,19.82031 2e-5,5.66504 0.25332,11.29741 0.70507,16.89453 h 24.88282 c -0.51527,-5.589 -0.78514,-11.22392 -0.78516,-16.89453 -9e-5,-3.40059 0.29341,-6.79258 0.48047,-10.1875 24.84166,-10.75064 51.65157,-16.65088 78.91992,-16.80859 h 0.0293 c 0.36975,-9.9e-4 0.73765,-10e-4 1.10742,0 h 0.0156 0.0215 c 27.8184,-8.7e-4 55.18578,5.97817 80.5,17 0.0102,0.79029 0.0664,1.58068 0.0664,2.37109 -6e-5,8.26597 -0.56823,16.45014 -1.65235,24.51953 h 25.01758 c 0.95044,-8.08634 1.43744,-16.26961 1.4375,-24.51953 -6e-5,-3.80833 -0.10343,-7.61696 -0.31055,-11.41992 l -0.39843,-7.33203 -6.6211,-3.17383 c -30.49819,-14.64155 -64.0241,-22.2525 -98.00976,-22.25586 -0.42604,-0.001 -0.85132,-0.001 -1.27735,0 h -0.0137 z M 157.63672,594 c 15.77846,34.88645 40.97551,65.56952 73.61719,88.37305 l 6.60742,4.61328 6.90234,-4.16211 C 280.82748,661.05542 309.11095,630.04099 327.16602,594 h -28.4043 C 284.1366,618.69175 263.79353,640.2541 238.84375,656.80273 216.32977,639.58712 198.22117,618.1018 185.41406,594 Z"
           transform="matrix(0.26458333,0,0,0.26458333,7.14375,-3.175)" />
        <g
           aria-label="LOGO"
           transform="translate(36.247917,1.5875)"
           id="text867"
           style="font-style:normal;font-weight:normal;font-size:10.5833px;line-height:1.25;font-family:sans-serif;shape-inside:url(#rect869);fill:#0000ff;fill-opacity:1;stroke:none">
          <path
             inkscape:connector-curvature="0"
             d="m 24.686586,146.71015 h -4.867904 v -7.69459 h 1.02319 v 6.78509 h 3.844714 z"
             id="path919" />
          <path
             inkscape:connector-curvature="0"
             d="m 31.445842,139.89922 q 0.470254,0.51676 0.7183,1.26607 0.253214,0.7493 0.253214,1.70015 0,0.95084 -0.258381,1.70532 -0.253214,0.7493 -0.713133,1.25056 -0.475422,0.52193 -1.126543,0.78548 -0.645953,0.26355 -1.477941,0.26355 -0.811317,0 -1.477941,-0.26872 -0.661456,-0.26871 -1.126543,-0.78031 -0.465086,-0.51159 -0.7183,-1.25573 -0.248046,-0.74414 -0.248046,-1.70015 0,-0.94051 0.248046,-1.68465 0.248046,-0.7493 0.723468,-1.28157 0.454751,-0.50643 1.126542,-0.77514 0.67696,-0.26872 1.472774,-0.26872 0.82682,0 1.483109,0.27388 0.661456,0.26872 1.121375,0.76998 z m -0.09302,2.96622 q 0,-1.49861 -0.671792,-2.30993 -0.671791,-0.81649 -1.834507,-0.81649 -1.173052,0 -1.844843,0.81649 -0.666624,0.81132 -0.666624,2.30993 0,1.51411 0.682127,2.32026 0.682127,0.80098 1.82934,0.80098 1.147213,0 1.824172,-0.80098 0.682127,-0.80615 0.682127,-2.32026 z"
             id="path921" />
          <path
             inkscape:connector-curvature="0"
             d="m 40.458184,146.14171 q -0.630451,0.28939 -1.379757,0.50643 -0.744138,0.21187 -1.441767,0.21187 -0.899168,0 -1.648473,-0.24804 -0.749306,-0.24805 -1.276404,-0.74414 -0.532266,-0.50126 -0.821653,-1.25057 -0.289387,-0.75447 -0.289387,-1.76216 0,-1.84484 1.074866,-2.90937 1.080034,-1.0697 2.961051,-1.0697 0.656288,0 1.338415,0.1602 0.687294,0.15503 1.477941,0.53226 v 1.21439 h -0.09302 q -0.160197,-0.12402 -0.465087,-0.32556 -0.30489,-0.20153 -0.599444,-0.33589 -0.356567,-0.1602 -0.811318,-0.26355 -0.449583,-0.10852 -1.02319,-0.10852 -1.291907,0 -2.04638,0.83199 -0.749306,0.82682 -0.749306,2.24275 0,1.49344 0.785479,2.32543 0.78548,0.82682 2.139398,0.82682 0.496092,0 0.987017,-0.0982 0.496092,-0.0982 0.868161,-0.25321 v -1.88618 h -2.061883 v -0.89917 h 3.074738 z"
             id="path923" />
          <path
             inkscape:connector-curvature="0"
             d="m 47.982247,139.89922 q 0.470254,0.51676 0.7183,1.26607 0.253214,0.7493 0.253214,1.70015 0,0.95084 -0.258381,1.70532 -0.253214,0.7493 -0.713133,1.25056 -0.475422,0.52193 -1.126543,0.78548 -0.645953,0.26355 -1.477941,0.26355 -0.811317,0 -1.477941,-0.26872 -0.661456,-0.26871 -1.126543,-0.78031 -0.465086,-0.51159 -0.7183,-1.25573 -0.248046,-0.74414 -0.248046,-1.70015 0,-0.94051 0.248046,-1.68465 0.248046,-0.7493 0.723468,-1.28157 0.454751,-0.50643 1.126543,-0.77514 0.676959,-0.26872 1.472773,-0.26872 0.82682,0 1.483109,0.27388 0.661456,0.26872 1.121375,0.76998 z m -0.09302,2.96622 q 0,-1.49861 -0.671792,-2.30993 -0.671791,-0.81649 -1.834507,-0.81649 -1.173051,0 -1.844843,0.81649 -0.666624,0.81132 -0.666624,2.30993 0,1.51411 0.682127,2.32026 0.682127,0.80098 1.82934,0.80098 1.147213,0 1.824172,-0.80098 0.682127,-0.80615 0.682127,-2.32026 z"
             id="path925" />
        </g>
      </g>
    </g>
  </g>
</svg>
